#!OML:ASF H:\Dans Jumps\Project 1\Capture day 1\Session 1\subject.ASF
:FULLY-SPECIFIED
:DEGREES
216
root 0.631699 17.5382 -14.0488 7.46416 -0.805665 -1.29559
lowerback -1.36223 -0.615219 -0.277364
upperback 2.19754 -0.865537 1.91837
thorax 3.05504 -0.462495 2.09351
lowerneck -14.5162 0.539936 -1.80427
upperneck 16.568 1.15232 -0.0356756
head 7.47958 0.431433 0.407252
rclavicle 8.29926e-015 -2.66371e-014
rhumerus -28.4469 -17.5625 -77.3338
rradius 23.6395
rwrist 32.7361
rhand -19.3268 -26.6709
rfingers 7.12502
rthumb 6.98972 -56.5355
lclavicle 8.29926e-015 -2.66371e-014
lhumerus -24.7016 3.07295 86.4922
lradius 15.7631
lwrist 2.74428
lhand -26.0586 -4.70807
lfingers 7.12502
lthumb 0.489174 25.2711
rfemur -15.0818 -2.81936 20.3352
rtibia 23.2922
rfoot -14.5992 -4.23168
rtoes 12.3901
lfemur -14.4067 9.34141 -20.038
ltibia 21.1369
lfoot -12.4874 3.41543
ltoes 2.04025
217
root 0.633634 17.5303 -14.0645 7.52183 -0.785403 -1.29211
lowerback -1.266 -0.622357 -0.275607
upperback 2.23606 -0.875082 1.92378
thorax 3.04094 -0.467449 2.09854
lowerneck -14.5522 0.534789 -1.83562
upperneck 16.6365 1.15102 -0.0211687
head 7.50815 0.429508 0.417471
rclavicle 3.57812e-015 2.38542e-015
rhumerus -28.6088 -17.575 -77.2146
rradius 23.6457
rwrist 32.6828
rhand -19.3297 -26.6438
rfingers 7.12502
rthumb 6.98694 -56.5085
lclavicle 3.57812e-015 2.38542e-015
lhumerus -24.8557 3.05557 86.456
lradius 15.8117
lwrist 2.8834
lhand -25.9867 -4.47119
lfingers 7.12502
lthumb 0.558597 25.5078
rfemur -15.3795 -2.83381 20.3358
rtibia 23.6338
rfoot -14.7082 -4.26698
rtoes 12.2758
lfemur -14.7341 9.38758 -20.0729
ltibia 21.5186
lfoot -12.6153 3.38493
ltoes 1.96859
218
root 0.635719 17.5212 -14.0812 7.57687 -0.769269 -1.29344
lowerback -1.15614 -0.627234 -0.266724
upperback 2.27683 -0.881703 1.92875
thorax 3.02124 -0.470757 2.09936
lowerneck -14.5953 0.527824 -1.8736
upperneck 16.7056 1.14735 0.00150697
head 7.53812 0.426792 0.431252
rclavicle -7.20594e-015 2.18663e-014
rhumerus -28.7834 -17.5877 -77.0913
rradius 23.6551
rwrist 32.6349
rhand -19.329 -26.6288
rfingers 7.12502
rthumb 6.98761 -56.4934
lclavicle -7.20594e-015 2.18663e-014
lhumerus -25.0176 3.02816 86.4196
lradius 15.8712
lwrist 3.03899
lhand -25.9052 -4.20924
lfingers 7.12502
lthumb 0.637282 25.7696
rfemur -15.699 -2.84763 20.3411
rtibia 24.0142
rfoot -14.8298 -4.30166
rtoes 12.1568
lfemur -15.0845 9.44023 -20.1044
ltibia 21.9435
lfoot -12.7582 3.35922
ltoes 1.87436
219
root 0.637833 17.5109 -14.0987 7.6291 -0.760017 -1.29769
lowerback -1.03477 -0.62837 -0.254594
upperback 2.32152 -0.883332 1.93286
thorax 2.99882 -0.471497 2.09779
lowerneck -14.6472 0.51891 -1.91636
upperneck 16.7753 1.14121 0.0300815
head 7.56979 0.423133 0.447546
rclavicle 2.78299e-015 -8.34896e-015
rhumerus -28.9674 -17.6075 -76.9619
rradius 23.6656
rwrist 32.598
rhand -19.3221 -26.6201
rfingers 7.12502
rthumb 6.99421 -56.4846
lclavicle 2.78299e-015 -8.34896e-015
lhumerus -25.1827 2.98962 86.3843
lradius 15.9327
lwrist 3.206
lhand -25.8311 -3.93953
lfingers 7.12502
lthumb 0.708895 26.039
rfemur -16.0397 -2.86078 20.3493
rtibia 24.4315
rfoot -14.9632 -4.33364
rtoes 12.0278
lfemur -15.4584 9.50076 -20.1346
ltibia 22.4128
lfoot -12.9161 3.33966
ltoes 1.76238
220
root 0.639897 17.4993 -14.1171 7.68287 -0.757763 -1.31045
lowerback -0.910751 -0.626365 -0.235002
upperback 2.37336 -0.881029 1.93767
thorax 2.98205 -0.470179 2.09291
lowerneck -14.7185 0.515283 -1.95364
upperneck 16.848 1.14107 0.0612376
head 7.60587 0.422874 0.464545
rclavicle -9.54166e-015 -9.54166e-015
rhumerus -29.1447 -17.6382 -76.8329
rradius 23.6658
rwrist 32.5704
rhand -19.324 -26.6431
rfingers 7.12502
rthumb 6.99243 -56.5076
lclavicle -9.54166e-015 -9.54166e-015
lhumerus -25.3419 2.93588 86.3494
lradius 15.9852
lwrist 3.38052
lhand -25.7801 -3.72066
lfingers 7.12502
lthumb 0.758145 26.2577
rfemur -16.4049 -2.87194 20.3672
rtibia 24.8844
rfoot -15.1077 -4.36351
rtoes 11.8837
lfemur -15.8598 9.56415 -20.157
ltibia 22.9263
lfoot -13.0876 3.33036
ltoes 1.64288
221
root 0.641802 17.4865 -14.1362 7.73632 -0.763452 -1.32839
lowerback -0.781803 -0.621268 -0.214804
upperback 2.43383 -0.874694 1.94366
thorax 2.97126 -0.466928 2.08907
lowerneck -14.8197 0.511305 -2.00403
upperneck 16.9311 1.14106 0.109202
head 7.65051 0.423317 0.489451
rclavicle 4.57205e-015 -3.97569e-016
rhumerus -29.3129 -17.6784 -76.7034
rradius 23.6574
rwrist 32.5492
rhand -19.3265 -26.6809
rfingers 7.12502
rthumb 6.98996 -56.5455
lclavicle 4.57205e-015 -3.97569e-016
lhumerus -25.494 2.87633 86.3127
lradius 16.0146
lwrist 3.54092
lhand -25.7925 -3.67878
lfingers 7.12502
lthumb 0.7462 26.2997
rfemur -16.7924 -2.88066 20.3914
rtibia 25.372
rfoot -15.2615 -4.39168
rtoes 11.7215
lfemur -16.2845 9.63194 -20.1746
ltibia 23.4799
lfoot -13.271 3.32898
ltoes 1.5178
222
root 0.643443 17.4724 -14.1563 7.78501 -0.769816 -1.34947
lowerback -0.639559 -0.615541 -0.195577
upperback 2.49985 -0.867443 1.95072
thorax 2.95871 -0.463276 2.08701
lowerneck -14.9249 0.5109 -2.03966
upperneck 17.0079 1.14522 0.143844
head 7.69389 0.425473 0.508022
rclavicle -9.93923e-016 6.75868e-015
rhumerus -29.4828 -17.7158 -76.5732
rradius 23.6484
rwrist 32.5286
rhand -19.3241 -26.7174
rfingers 7.12502
rthumb 6.99228 -56.5819
lclavicle -9.93923e-016 6.75868e-015
lhumerus -25.6523 2.82319 86.2708
lradius 16.03
lwrist 3.67614
lhand -25.8511 -3.77668
lfingers 7.12502
lthumb 0.68957 26.202
rfemur -17.1977 -2.89065 20.4203
rtibia 25.8956
rfoot -15.4264 -4.42056
rtoes 11.5493
lfemur -16.7271 9.70159 -20.1877
ltibia 24.0709
lfoot -13.4659 3.32954
ltoes 1.38811
223
root 0.644784 17.4571 -14.1771 7.83103 -0.77694 -1.36985
lowerback -0.486533 -0.609785 -0.183097
upperback 2.57307 -0.859986 1.95806
thorax 2.94763 -0.459734 2.0891
lowerneck -15.0305 0.51712 -2.06913
upperneck 17.0717 1.15639 0.181346
head 7.73305 0.431773 0.52726
rclavicle -3.77691e-015 1.39149e-014
rhumerus -29.6449 -17.7552 -76.4453
rradius 23.6314
rwrist 32.5069
rhand -19.3203 -26.7553
rfingers 7.12502
rthumb 6.99595 -56.6197
lclavicle -3.77691e-015 1.39149e-014
lhumerus -25.8104 2.76739 86.2256
lradius 16.0353
lwrist 3.80494
lhand -25.941 -3.99062
lfingers 7.12502
lthumb 0.602737 25.9883
rfemur -17.6227 -2.90262 20.4502
rtibia 26.4564
rfoot -15.6022 -4.45122
rtoes 11.3655
lfemur -17.1865 9.76972 -20.2005
ltibia 24.6949
lfoot -13.6716 3.33589
ltoes 1.25448
224
root 0.645843 17.4401 -14.1989 7.86676 -0.780287 -1.38745
lowerback -0.309183 -0.604661 -0.176776
upperback 2.64775 -0.853008 1.9654
thorax 2.92446 -0.456528 2.09485
lowerneck -15.1083 0.527586 -2.06597
upperneck 17.1098 1.17195 0.182709
head 7.75919 0.439032 0.529454
rclavicle -1.19271e-015 -2.38542e-015
rhumerus -29.8264 -17.756 -76.3225
rradius 23.6362
rwrist 32.4572
rhand -19.2987 -26.788
rfingers 7.12502
rthumb 7.01686 -56.6517
lclavicle -1.19271e-015 -2.38542e-015
lhumerus -25.9903 2.70983 86.1796
lradius 16.0526
lwrist 3.93927
lhand -26.0425 -4.26081
lfingers 7.12502
lthumb 0.504727 25.7183
rfemur -18.0602 -2.91974 20.4789
rtibia 27.0558
rfoot -15.791 -4.48518
rtoes 11.1706
lfemur -17.6544 9.84127 -20.2144
ltibia 25.3488
lfoot -13.8911 3.33951
ltoes 1.11482
225
root 0.646619 17.4217 -14.2215 7.89272 -0.781885 -1.39997
lowerback -0.108411 -0.599779 -0.179041
upperback 2.72295 -0.845947 1.97221
thorax 2.88877 -0.453426 2.10511
lowerneck -15.1651 0.534053 -2.05856
upperneck 17.1279 1.18269 0.172158
head 7.77521 0.443321 0.526296
rclavicle -4.07509e-015 1.15295e-014
rhumerus -30.0255 -17.7357 -76.1986
rradius 23.6506
rwrist 32.4001
rhand -19.2782 -26.7986
rfingers 7.12502
rthumb 7.03665 -56.6616
lclavicle -4.07509e-015 1.15295e-014
lhumerus -26.1916 2.64111 86.1371
lradius 16.0873
lwrist 4.10252
lhand -26.1243 -4.47808
lfingers 7.12502
lthumb 0.425688 25.5012
rfemur -18.5099 -2.93969 20.5037
rtibia 27.6931
rfoot -15.9938 -4.52425
rtoes 10.9669
lfemur -18.1291 9.92078 -20.2328
ltibia 26.0296
lfoot -14.1257 3.34114
ltoes 0.963422
226
root 0.64718 17.4016 -14.2449 7.90954 -0.783666 -1.40739
lowerback 0.113905 -0.594636 -0.188748
upperback 2.79785 -0.8382 1.97839
thorax 2.84072 -0.450095 2.1191
lowerneck -15.2095 0.53247 -2.05853
upperneck 17.1374 1.18397 0.160557
head 7.78628 0.442622 0.522864
rclavicle -6.75868e-015 -2.78299e-015
rhumerus -30.2451 -17.6868 -76.0759
rradius 23.6797
rwrist 32.3361
rhand -19.2479 -26.8031
rfingers 7.12502
rthumb 7.06585 -56.6651
lclavicle -6.75868e-015 -2.78299e-015
lhumerus -26.4155 2.55837 86.0994
lradius 16.1429
lwrist 4.3071
lhand -26.1941 -4.63956
lfingers 7.12502
lthumb 0.358277 25.3399
rfemur -18.9715 -2.9619 20.5242
rtibia 28.3667
rfoot -16.2107 -4.56667
rtoes 10.7601
lfemur -18.6087 10.0079 -20.2562
ltibia 26.735
lfoot -14.3761 3.34369
ltoes 0.802106
